<svg id="Layer_1" data-name="Layer 1" xmlns="http://www.w3.org/2000/svg" viewBox="0 0 58.67 16"><defs><style>.cls-1{fill:#0764ea;}.cls-2{fill:#fff;}</style></defs><title>Log Svg</title><path class="cls-1" d="M5.56,9.27l.33.58a1.06,1.06,0,0,0,.31.35s.06.05.09.05Zm1.67.82a.83.83,0,0,0,.11-.15Z"/><path class="cls-1" d="M15.47,9.42,15.1,9c-.1-.09-.18-.17-.26-.23a1.37,1.37,0,0,0,.5-.19,1.22,1.22,0,0,0,.36-.32,1.58,1.58,0,0,0,.24-.42,1.64,1.64,0,0,0,.08-.5,1.37,1.37,0,0,0-.22-.79,1.56,1.56,0,0,0-.56-.49,2.46,2.46,0,0,0-.74-.22,5.32,5.32,0,0,0-.79,0H9a.64.64,0,0,0-.39-.11.89.89,0,0,0-.55.14,1.42,1.42,0,0,0-.35.34l-1.41,2a.75.75,0,0,0-.07-.12L6.1,7.74C6,7.62,6,7.49,5.88,7.33L5.28,6.2a1.58,1.58,0,0,0-.18-.27.9.9,0,0,0-.19-.15.68.68,0,0,0-.2-.07l-.24,0-.22,0A.52.52,0,0,0,4,5.78a.84.84,0,0,0-.18.15,1.26,1.26,0,0,0-.18.27l-.6,1.12c-.16.29-.28.53-.38.72s-.18.37-.25.52c0-.18-.08-.37-.13-.56s-.1-.38-.17-.63L1.72,5.84H.33L1.48,9.75a.76.76,0,0,0,.3.44.73.73,0,0,0,.47.15.74.74,0,0,0,.46-.14A1,1,0,0,0,3,9.85l.72-1.27c.09-.18.18-.33.25-.46l.19-.35c.06-.11.11-.2.15-.29l.12-.24.12.24c0,.09.09.18.15.29s.12.22.2.35.15.29.25.46l.39.69v0l.73,1H6.5l1.32-1.9.79-1.13.8,1.18.24.34c.08.13.16.32.22.4-.11,0-.23.07-.38.07H7.94l-.6.75-.11.11h0l-.11.17h5.21L11.51,9h1.93l1,1.28H16.3Zm-1.1-1.57a1,1,0,0,1-.55.15H10.74L10,6.93h3.8a1,1,0,0,1,.57.13.47.47,0,0,1,.2.4A.44.44,0,0,1,14.37,7.85Z"/><path class="cls-2" d="M14,10.64a6.34,6.34,0,0,1-5.81,3.67,6.23,6.23,0,0,1-5.64-3.67H2a9.66,9.66,0,0,0,1.43,2.23l-.29.32a7.05,7.05,0,0,1-1.67-2.55H.92a7.85,7.85,0,0,0,14.81,0ZM5.73,1.14a7.22,7.22,0,0,1,7.76,1.75l-.33.27a6.79,6.79,0,0,0-5.53-2,6.72,6.72,0,0,0-4.23,2A5.9,5.9,0,0,0,2,5.36h.58A6.36,6.36,0,0,1,8.37,1.68,6.28,6.28,0,0,1,14,5.36h1.67a7.85,7.85,0,0,0-14.8,0h.56A7.55,7.55,0,0,1,5.73,1.14Z"/><rect class="cls-1" x="17.6" y="0.11" width="0.4" height="15.79"/><path class="cls-1" d="M24.4,12.61H23.22l-.63-.75H21.24v.75h-.87V11.16h2.46a.65.65,0,0,0,.35-.09.25.25,0,0,0,.14-.23.28.28,0,0,0-.13-.25.69.69,0,0,0-.36-.08H20.37l.57-.74h1.82a2.92,2.92,0,0,1,.5.05,1.73,1.73,0,0,1,.47.15,1,1,0,0,1,.35.31.87.87,0,0,1,.14.5,1.13,1.13,0,0,1,0,.32.72.72,0,0,1-.15.27,1.14,1.14,0,0,1-.23.2,1,1,0,0,1-.31.11l.16.14.24.24Z"/><path class="cls-1" d="M28,11.88l-.57.73H24.71V9.77H28l-.57.74H25.59v.34h2.25l-.5.64H25.59v.39Z"/><path class="cls-1" d="M29.17,9.77l1.27,1.88,1.33-1.88h1L31,12.34a1,1,0,0,1-.23.22.58.58,0,0,1-.33.09.59.59,0,0,1-.34-.09.77.77,0,0,1-.22-.22L28.09,9.77Z"/><path class="cls-1" d="M34.73,9.72a2.71,2.71,0,0,1,1.55.36,1.23,1.23,0,0,1,.52,1.11,1.24,1.24,0,0,1-.51,1.11,2.77,2.77,0,0,1-1.56.35,2.73,2.73,0,0,1-1.56-.35,1.24,1.24,0,0,1-.51-1.11,1.24,1.24,0,0,1,.51-1.11A2.77,2.77,0,0,1,34.73,9.72Zm0,2.2a4.39,4.39,0,0,0,.56,0,1.08,1.08,0,0,0,.37-.11.5.5,0,0,0,.21-.22,1,1,0,0,0,.06-.37.92.92,0,0,0-.06-.37.45.45,0,0,0-.21-.22.9.9,0,0,0-.37-.11,5.24,5.24,0,0,0-1.12,0,.9.9,0,0,0-.37.11.45.45,0,0,0-.21.22.92.92,0,0,0-.06.37,1,1,0,0,0,.06.37.5.5,0,0,0,.21.22,1.08,1.08,0,0,0,.37.11A4.39,4.39,0,0,0,34.73,11.92Z"/><path class="cls-1" d="M40.32,11.88l-.56.73H37.25V9.77h.88v2.11Z"/><path class="cls-1" d="M44.3,11.37c0,.86-.59,1.28-1.77,1.28a3.83,3.83,0,0,1-.88-.08,1.69,1.69,0,0,1-.61-.24,1,1,0,0,1-.35-.4,1.4,1.4,0,0,1-.11-.56V9.77h.87v1.6a1,1,0,0,0,0,.26.37.37,0,0,0,.16.17.86.86,0,0,0,.33.1,4.11,4.11,0,0,0,.55,0,2.63,2.63,0,0,0,.43,0,.85.85,0,0,0,.27-.1.38.38,0,0,0,.15-.18.87.87,0,0,0,0-.25V9.77h.88Z"/><path class="cls-1" d="M48.32,9.77l-.57.74h-1v2.1h-.88v-2.1H44.53l.57-.74Z"/><path class="cls-1" d="M49.48,12.61H48.6V9.77h.88Z"/><path class="cls-1" d="M52,9.72a2.77,2.77,0,0,1,1.56.36,1.25,1.25,0,0,1,.52,1.11,1.25,1.25,0,0,1-.52,1.11,3.65,3.65,0,0,1-3.12,0,1.24,1.24,0,0,1-.51-1.11,1.23,1.23,0,0,1,.52-1.11A2.71,2.71,0,0,1,52,9.72Zm0,2.2a4.39,4.39,0,0,0,.56,0,1.08,1.08,0,0,0,.37-.11.45.45,0,0,0,.21-.22,1,1,0,0,0,.06-.37.92.92,0,0,0-.06-.37.41.41,0,0,0-.21-.22.9.9,0,0,0-.37-.11,5.24,5.24,0,0,0-1.12,0,1,1,0,0,0-.37.11.43.43,0,0,0-.2.22.76.76,0,0,0-.07.37.82.82,0,0,0,.07.37.47.47,0,0,0,.2.22,1.16,1.16,0,0,0,.37.11A4.39,4.39,0,0,0,52,11.92Z"/><path class="cls-1" d="M57.41,12.65a.47.47,0,0,1-.17,0,.5.5,0,0,1-.19-.13l-1.73-1.56v1.67h-.8V10.25a.61.61,0,0,1,0-.24.49.49,0,0,1,.1-.16.39.39,0,0,1,.16-.1.52.52,0,0,1,.18,0,.45.45,0,0,1,.16,0,.5.5,0,0,1,.19.13l1.74,1.56V9.77h.8v2.35a.61.61,0,0,1,0,.24.42.42,0,0,1-.11.17.4.4,0,0,1-.15.1Z"/><path class="cls-2" d="M24.17,5.84,24,5.44c-.06-.12-.12-.22-.17-.31s-.1-.18-.13-.25l-.11-.22c0,.07-.07.14-.11.22s-.08.15-.13.25l-.16.31c-.07.11-.14.24-.23.4L22.28,7a1,1,0,0,1-.27.3.65.65,0,0,1-.4.12.71.71,0,0,1-.42-.14.74.74,0,0,1-.27-.41l-1-3.47h1.22l.37,1.38c.07.22.12.42.16.59s.08.33.11.49L22,5.37c.08-.17.2-.38.33-.64l.53-1A1.77,1.77,0,0,1,23,3.51a.48.48,0,0,1,.16-.13.67.67,0,0,1,.18-.07h.41a.67.67,0,0,1,.18.07.61.61,0,0,1,.16.13.84.84,0,0,1,.16.23l.52,1,.2.36c.05.11.1.2.15.29l.11.23.1.2c0-.15.07-.32.11-.49s.1-.37.16-.59L26,3.36h1.19l-1,3.47a.65.65,0,0,1-.27.41.68.68,0,0,1-.41.14.65.65,0,0,1-.4-.12.79.79,0,0,1-.27-.3Z"/><path class="cls-2" d="M32.23,6.3l-.78,1h-3.8V3.36h4.57l-.79,1H28.88v.47H32l-.7.9H28.88V6.3Z"/><path class="cls-2" d="M37.11,5.28a.87.87,0,0,1,.44.3.91.91,0,0,1,.18.58,1.34,1.34,0,0,1-.08.46.83.83,0,0,1-.26.36,1.4,1.4,0,0,1-.49.24,2.88,2.88,0,0,1-.78.09H32.65V4.91h3.5a.41.41,0,0,0,.23-.06.2.2,0,0,0,.11-.2.22.22,0,0,0-.11-.21.59.59,0,0,0-.23-.05h-3.5l.83-1h2.61a3.06,3.06,0,0,1,.64.07,1.57,1.57,0,0,1,.49.21.91.91,0,0,1,.31.34,1,1,0,0,1,.11.48,1,1,0,0,1,0,.31,1.34,1.34,0,0,1-.12.24.73.73,0,0,1-.18.17A.87.87,0,0,1,37.11,5.28Zm-3.23.47V6.3h2.25a.54.54,0,0,0,.29-.07A.26.26,0,0,0,36.51,6a.24.24,0,0,0-.09-.2.54.54,0,0,0-.29-.07Z"/><path class="cls-2" d="M42.27,7.31l.74-1H44.7c-.05-.07-.12-.16-.19-.27s-.14-.21-.21-.3l-.71-1L41.74,7.31H40.29l2.53-3.57a1.54,1.54,0,0,1,.32-.3.77.77,0,0,1,.47-.14.79.79,0,0,1,.47.13,1.14,1.14,0,0,1,.31.31l2.47,3.57Z"/><path class="cls-2" d="M52.51,4.85a1.38,1.38,0,0,1-.13.59A1.3,1.3,0,0,1,52,5.9a1.88,1.88,0,0,1-.62.3,2.92,2.92,0,0,1-.82.1H48.5v1H47.28v-2h3.4a.7.7,0,0,0,.44-.12.42.42,0,0,0,0-.66.7.7,0,0,0-.44-.12h-3.4l.81-1h2.48a2.91,2.91,0,0,1,.82.11,2.06,2.06,0,0,1,.61.31,1.4,1.4,0,0,1,.38.46A1.51,1.51,0,0,1,52.51,4.85Z"/><path class="cls-2" d="M58.33,4.85a1.38,1.38,0,0,1-.12.59,1.23,1.23,0,0,1-.39.46,1.74,1.74,0,0,1-.61.3,2.92,2.92,0,0,1-.82.1H54.33v1H53.11v-2h3.4A.7.7,0,0,0,57,5.17a.42.42,0,0,0,0-.66.7.7,0,0,0-.44-.12h-3.4l.81-1H56.4a2.91,2.91,0,0,1,.82.11,2.06,2.06,0,0,1,.61.31,1.4,1.4,0,0,1,.38.46A1.51,1.51,0,0,1,58.33,4.85Z"/></svg>